<svg xmlns:xlink="http://www.w3.org/1999/xlink" xmlns="http://www.w3.org/2000/svg" width="68" height="48" viewBox="0 0 68 48" fill="none">
<path d="M9.15003 47.4L18.45 31.3C18.0834 31.3333 17.6917 31.375 17.275 31.425C16.8584 31.475 16.4834 31.5 16.15 31.5C11.7813 31.5 8.06409 29.9576 4.99842 26.8728C1.93282 23.788 0.400024 20.0797 0.400024 15.7478C0.400024 11.4159 1.94242 7.70833 5.02723 4.625C8.11203 1.54167 11.8204 0 16.1522 0C20.4841 0 24.1917 1.54097 27.275 4.6229C30.3584 7.7049 31.9 11.4098 31.9 15.7377C31.9 17.1126 31.725 18.4667 31.375 19.8C31.025 21.1333 30.4834 22.4167 29.75 23.65L16.1 47.4H9.15003ZM44.85 47.4L54.2 31.3C53.8334 31.3333 53.4334 31.375 53 31.425C52.5667 31.475 52.1834 31.5 51.85 31.5C47.4813 31.5 43.7641 29.9576 40.6984 26.8728C37.6328 23.788 36.1 20.0797 36.1 15.7478C36.1 11.4159 37.6424 7.70833 40.7272 4.625C43.812 1.54167 47.5204 0 51.8522 0C56.1841 0 59.8917 1.54097 62.975 4.6229C66.0584 7.7049 67.6 11.4098 67.6 15.7377C67.6 17.1126 67.4167 18.4667 67.05 19.8C66.6834 21.1333 66.1334 22.4167 65.4 23.65L51.75 47.4H44.85Z" fill="#32e4b6"/>
</svg>