<svg xmlns:xlink="http://www.w3.org/1999/xlink" xmlns="http://www.w3.org/2000/svg" width="25" height="24" viewBox="0 0 25 24" fill="none">
<mask id="mask0_205_212" style="mask-type:alpha" maskUnits="userSpaceOnUse" x="0" y="0" width="25" height="24">
<rect x="24.5" width="24" height="24" transform="rotate(90 24.5 0)" fill="#D9D9D9"/>
</mask>
<g mask="url(#mask0_205_212)">
<path d="M16.5 12L11.5 7L10.1 8.4L12.675 11L2.5 11V13L12.675 13L10.1 15.6L11.5 17L16.5 12ZM7 3.65C7.81667 3.11667 8.69167 2.70833 9.625 2.425C10.5583 2.14167 11.5167 2 12.5 2C13.8833 2 15.1833 2.2625 16.4 2.7875C17.6167 3.3125 18.675 4.025 19.575 4.925C20.475 5.825 21.1875 6.88333 21.7125 8.1C22.2375 9.31667 22.5 10.6167 22.5 12C22.5 13.3833 22.2375 14.6833 21.7125 15.9C21.1875 17.1167 20.475 18.175 19.575 19.075C18.675 19.975 17.6167 20.6875 16.4 21.2125C15.1833 21.7375 13.8833 22 12.5 22C11.5167 22 10.5583 21.8583 9.625 21.575C8.69167 21.2917 7.81667 20.8833 7 20.35L8.45 18.9C9.06667 19.2667 9.71667 19.5417 10.4 19.725C11.0833 19.9083 11.7833 20 12.5 20C14.7333 20 16.625 19.225 18.175 17.675C19.725 16.125 20.5 14.2333 20.5 12C20.5 9.76667 19.725 7.875 18.175 6.325C16.625 4.775 14.7333 4 12.5 4C11.7833 4 11.0833 4.09167 10.4 4.275C9.71667 4.45833 9.06667 4.73333 8.45 5.1L7 3.65Z" fill="black"/>
</g>
</svg>