<svg xmlns:xlink="http://www.w3.org/1999/xlink" xmlns="http://www.w3.org/2000/svg" version="1.0" width="900" height="627" viewBox="0 0 900.000000 627.000000" preserveAspectRatio="xMidYMid meet">
<metadata>
Created by potrace 1.10, written by Peter Selinger 2001-2011
</metadata>
<g transform="translate(0.000000,627.000000) scale(0.100000,-0.100000)" fill="#000000" stroke="none">
<path d="M1165 4748 c-3 -7 -4 -706 -3 -1553 l3 -1540 3229 -2 c2975 -2 3231 -1 3248 14 17 15 18 84 18 1535 0 1028 -3 1526 -10 1539 -11 19 -58 19 -3246 19 -2578 0 -3236 -3 -3239 -12z m3442 -519 c79 -36 150 -127 155 -201 l3 -33 -77 -3 -78 -3 -19 33 c-39 65 -59 78 -129 78 -56 0 -67 -3 -92 -28 -40 -40 -53 -98 -53 -242 -1 -146 13 -206 55 -247 26 -25 37 -28 93 -28 53 0 68 4 89 24 14 14 26 29 26 35 0 5 10 20 22 33 18 19 32 23 84 23 72 0 88 -12 75 -56 -23 -81 -74 -145 -145 -182 -46 -24 -61 -27 -156 -26 -121 0 -158 14 -226 86 -73 77 -79 103 -79 343 1 208 1 210 27 262 39 72 127 140 203 154 60 11 174 0 222 -22z m797 -7 c66 -36 121 -102 143 -170 13 -45 17 -93 18 -222 0 -217 -16 -277 -99 -353 -64 -59 -101 -72 -216 -72 -122 0 -159 14 -230 87 -69 71 -80 119 -80 338 0 220 9 259 81 331 79 80 140 101 264 92 50 -3 84 -12 119 -31z m809 7 c60 -31 120 -97 143 -159 12 -30 19 -61 17 -67 -4 -9 -30 -13 -84 -13 -74 0 -80 2 -88 23 -16 42 -70 87 -104 88 -88 3 -120 -10 -152 -64 -14 -24 -17 -58 -17 -208 l-1 -180 30 -42 c23 -33 38 -44 70 -51 65 -13 109 -1 140 41 56 72 58 73 132 73 78 0 91 -12 66 -60 -8 -16 -15 -35 -15 -42 0 -23 -90 -118 -134 -141 -35 -18 -57 -22 -146 -22 -122 0 -166 17 -236 90 -64 67 -76 113 -82 304 -6 223 14 302 97 379 65 61 143 84 255 75 41 -2 86 -13 109 -24z m-4433 -149 l5 -165 135 0 135 0 5 165 5 165 80 0 80 0 0 -415 0 -415 -82 -3 -83 -3 0 160 c0 88 -3 166 -6 175 -5 13 -26 16 -129 16 -89 0 -126 -4 -134 -13 -6 -8 -12 -76 -13 -173 l-3 -159 -80 0 -80 0 -3 405 c-1 223 0 411 3 418 3 9 26 12 82 10 l78 -3 5 -165z m1038 162 c7 -5 16 -22 21 -38 5 -16 24 -67 41 -114 18 -47 38 -103 45 -125 16 -46 35 -98 66 -175 11 -30 23 -66 26 -80 3 -14 9 -29 13 -35 4 -5 13 -26 18 -45 6 -19 20 -60 32 -90 31 -79 40 -112 34 -121 -3 -5 -38 -9 -79 -9 -65 0 -76 3 -89 22 -9 12 -16 32 -16 43 0 11 -9 33 -20 50 -19 30 -20 30 -122 32 -155 3 -175 -1 -194 -45 -9 -21 -19 -50 -23 -67 l-7 -30 -88 -3 -88 -3 5 28 c3 15 12 46 21 68 39 102 58 154 77 210 11 33 24 69 29 80 8 18 20 50 50 135 5 14 18 50 30 80 12 30 26 69 30 85 14 49 39 114 52 135 10 16 24 20 68 20 30 0 61 -4 68 -8z m661 -64 c25 -37 87 -130 136 -208 95 -150 134 -204 142 -196 3 3 5 105 4 228 -1 123 3 229 7 236 6 9 30 12 83 10 l74 -3 0 -415 0 -415 -75 -3 -75 -2 -36 57 c-174 276 -261 406 -276 411 -10 3 -13 -51 -15 -230 l-3 -233 -74 -3 c-53 -2 -77 1 -82 10 -10 15 -12 771 -3 806 6 21 11 23 77 20 l71 -3 45 -67z m3259 -95 c2 -121 6 -163 15 -163 6 1 41 38 77 83 36 45 96 119 134 164 l68 83 94 0 c63 0 94 -4 94 -11 0 -6 -53 -75 -118 -153 -65 -77 -123 -150 -129 -160 -9 -16 -6 -27 11 -55 12 -20 26 -43 29 -51 4 -8 16 -28 27 -45 11 -16 24 -39 29 -50 5 -11 48 -83 94 -160 47 -77 83 -143 80 -147 -2 -5 -46 -8 -97 -8 l-92 0 -27 53 c-15 28 -32 59 -37 67 -16 25 -94 163 -115 203 -11 20 -25 37 -31 37 -6 0 -31 -23 -55 -52 l-44 -52 -5 -126 -5 -125 -80 0 -80 0 -3 405 c-1 223 0 411 3 418 3 9 26 12 82 10 l78 -3 3 -162z m-4829 -1204 c73 -31 96 -68 96 -155 0 -62 -3 -75 -28 -107 -39 -51 -85 -68 -200 -74 -114 -7 -106 4 -110 -143 -2 -94 -2 -95 -27 -95 l-25 0 -3 285 c-1 157 0 290 3 297 3 10 37 13 125 13 100 0 130 -4 169 -21z m559 4 c129 -61 138 -218 17 -293 -19 -12 -35 -25 -35 -30 0 -4 19 -43 43 -86 82 -151 82 -153 69 -166 -8 -8 -20 -9 -39 -2 -21 7 -39 33 -84 122 -32 62 -63 119 -69 127 -15 18 -111 20 -128 3 -8 -8 -12 -51 -12 -129 0 -112 -1 -118 -22 -125 -44 -14 -48 9 -48 297 0 230 2 270 16 283 23 24 242 23 292 -1z m545 1 c96 -49 127 -118 127 -285 0 -122 -16 -187 -58 -233 -95 -102 -268 -82 -334 39 -26 48 -28 57 -28 191 0 186 18 232 112 284 42 24 137 26 181 4z m570 -4 c51 -23 65 -46 42 -69 -14 -15 -19 -14 -55 7 -28 16 -55 22 -98 22 -54 0 -63 -3 -91 -32 -78 -79 -7 -178 127 -178 37 0 99 -25 122 -49 58 -61 59 -161 3 -223 -54 -60 -198 -77 -288 -34 -27 12 -56 31 -64 40 -13 15 -12 20 7 38 l21 21 43 -28 c60 -40 147 -47 201 -15 49 29 67 82 43 128 -20 40 -56 58 -126 65 -70 7 -139 38 -164 73 -14 20 -20 45 -20 89 0 72 24 114 82 145 51 27 154 27 215 0z m549 3 c56 -22 81 -47 103 -105 15 -42 16 -54 5 -94 -28 -98 -83 -132 -230 -142 l-95 -7 -5 -105 c-5 -113 -11 -130 -41 -130 -35 0 -40 41 -37 317 3 221 5 265 18 273 27 17 235 12 282 -7z m626 -15 l3 -27 -148 -3 -148 -3 0 -100 0 -100 123 -3 c97 -2 124 -6 129 -17 13 -35 -15 -44 -135 -47 l-117 -3 -3 -94 c-2 -69 1 -97 10 -103 7 -4 75 -8 151 -8 l138 0 -3 -27 -3 -28 -175 0 -175 0 -3 285 c-1 157 0 291 3 298 3 10 44 12 177 10 l173 -3 3 -27z m452 11 c52 -27 92 -79 93 -121 2 -29 -1 -33 -23 -33 -14 0 -29 8 -35 20 -33 66 -75 95 -134 95 -53 0 -100 -31 -125 -83 -25 -54 -23 -264 4 -316 57 -113 219 -103 250 14 6 20 39 31 65 21 12 -4 12 -11 3 -38 -47 -138 -216 -182 -335 -88 -55 43 -63 75 -63 250 0 168 7 200 50 241 62 60 175 77 250 38z m600 6 c26 -32 5 -45 -74 -45 -58 0 -75 -3 -80 -16 -3 -9 -6 -127 -6 -264 0 -242 -1 -249 -20 -255 -47 -15 -49 0 -52 274 l-3 256 -77 3 c-74 3 -78 4 -78 26 0 12 3 26 7 29 3 4 88 7 188 7 149 0 185 -3 195 -15z m210 -11 c13 -34 13 -515 0 -549 -7 -20 -16 -26 -33 -23 l-22 3 -3 285 c-1 157 0 290 3 297 8 23 45 15 55 -13z m296 -11 c19 -20 34 -40 34 -43 0 -7 201 -315 220 -337 6 -7 15 -13 20 -13 5 0 10 92 12 205 3 215 9 242 46 219 15 -10 17 -39 20 -291 2 -300 0 -313 -47 -298 -16 5 -121 144 -121 160 0 2 -24 39 -52 80 -64 93 -85 124 -99 151 -6 11 -19 25 -30 32 -19 12 -19 7 -19 -191 0 -215 -6 -243 -46 -235 -18 3 -19 16 -22 278 -1 151 0 285 3 298 8 33 42 27 81 -15z m861 2 c45 -31 89 -104 79 -130 -3 -8 -16 -15 -30 -15 -18 0 -29 9 -43 37 -50 102 -182 111 -244 17 -16 -25 -19 -49 -19 -174 0 -125 3 -149 19 -173 42 -64 126 -85 188 -47 41 24 59 54 68 108 9 58 -4 72 -70 72 -61 0 -86 18 -60 44 12 12 36 16 95 16 70 0 81 -2 94 -22 33 -46 10 -177 -39 -229 -92 -98 -254 -88 -330 19 l-30 44 0 168 0 168 30 43 c47 66 96 90 180 87 59 -3 77 -8 112 -33z"/>
<path d="M5220 4102 c-30 -5 -77 -37 -90 -62 -20 -38 -31 -205 -20 -312 10 -98 12 -105 45 -138 32 -32 40 -35 93 -35 41 0 64 5 84 20 51 38 58 70 58 259 l0 173 -30 42 c-17 23 -36 44 -43 46 -26 8 -73 11 -97 7z"/>
<path d="M2736 3926 c-9 -19 -16 -39 -16 -45 0 -6 -7 -27 -16 -48 -58 -135 -59 -133 51 -133 60 0 84 4 88 13 3 8 -8 52 -25 98 -16 46 -32 97 -36 113 -10 42 -27 42 -46 2z"/>
<path d="M1682 2828 c-13 -13 -17 -154 -6 -195 6 -22 11 -23 96 -23 134 0 168 24 168 118 0 50 -16 75 -67 101 -29 15 -176 14 -191 -1z"/>
<path d="M2241 2826 c-8 -9 -11 -46 -9 -103 l3 -88 90 -3 c113 -4 131 1 155 41 36 58 19 122 -41 153 -38 19 -182 19 -198 0z"/>
<path d="M2853 2817 c-52 -36 -68 -85 -68 -212 0 -130 13 -173 63 -215 50 -41 104 -41 159 -1 31 22 43 40 52 74 14 59 14 215 0 273 -24 93 -128 134 -206 81z"/>
<path d="M3916 2832 c-10 -17 -8 -204 2 -214 18 -18 172 -10 206 10 43 25 62 88 42 136 -23 56 -66 76 -163 76 -45 0 -84 -4 -87 -8z"/>
</g>
</svg>