<svg xmlns:xlink="http://www.w3.org/1999/xlink" xmlns="http://www.w3.org/2000/svg" viewBox="0 0 864 221" width="864"  height="221" ><defs><linearGradient id="a" x1=".2" x2=".8" y1=".8" y2=".2" gradientUnits="objectBoundingBox"><stop offset="0" stop-color="#000"/><stop offset="1" stop-color="#000"/></linearGradient></defs><g data-name="Group 4648"><g data-name="Group 4647"><path fill="#000" d="M525 199v-74a54 54 0 0 1 7-26 49 49 0 0 1 18-18 52 52 0 0 1 51 0 46 46 0 0 1 18 18 51 51 0 0 1 7 26 50 50 0 0 1-6 26 44 44 0 0 1-17 18 47 47 0 0 1-44 2 47 47 0 0 1-15-12v40a9 9 0 0 1-3 7 10 10 0 0 1-6 2 10 10 0 0 1-10-9Zm34-104a31 31 0 0 0-11 13 37 37 0 0 0-5 17 37 37 0 0 0 5 17 29 29 0 0 0 11 13 32 32 0 0 0 33 0 34 34 0 0 0 12-13 37 37 0 0 0 4-17 37 37 0 0 0-4-17 29 29 0 0 0-12-13 31 31 0 0 0-16-4 33 33 0 0 0-17 4ZM452 207c-5-2-7-7-4-11l12-29v-1l-42-79a8 8 0 0 1-1-7 8 8 0 0 1 5-5c4-2 9 1 11 5l35 68 28-68 1-1a8 8 0 0 1 11-3 3 3 0 0 1 2 1c4 2 5 7 3 10l-50 116a9 9 0 0 1-8 5 8 8 0 0 1-3-1Zm334-38a50 50 0 0 1-16-18 54 54 0 0 1-6-26 51 51 0 0 1 7-26 49 49 0 0 1 18-18 52 52 0 0 1 25-7 49 49 0 0 1 44 25 51 51 0 0 1 6 26v40a10 10 0 0 1-9 10 10 10 0 0 1-9-10v-6a51 51 0 0 1-12 10 46 46 0 0 1-24 6 46 46 0 0 1-24-6Zm12-74a32 32 0 0 0-12 13 37 37 0 0 0-4 17 37 37 0 0 0 4 17 29 29 0 0 0 12 13 32 32 0 0 0 33 0 29 29 0 0 0 11-13 43 43 0 0 0 5-17 37 37 0 0 0-5-17 29 29 0 0 0-11-13 31 31 0 0 0-16-4 33 33 0 0 0-17 4Zm-72 77a8 8 0 0 1-3-7v-45a35 35 0 0 0-3-16 26 26 0 0 0-10-10 35 35 0 0 0-15-3 31 31 0 0 0-14 3 24 24 0 0 0-9 8 19 19 0 0 0-4 12v51a9 9 0 0 1-3 7 10 10 0 0 1-7 2 9 9 0 0 1-7-2 9 9 0 0 1-4-7V50a10 10 0 0 1 4-6 11 11 0 0 1 7-3h1a9 9 0 0 1 9 9v36c2-3 5-5 9-7a45 45 0 0 1 22-5 49 49 0 0 1 22 5 41 41 0 0 1 16 16 54 54 0 0 1 5 26v44a9 9 0 0 1-2 7 10 10 0 0 1-7 2 7 7 0 0 1-1 0 8 8 0 0 1-5-2Zm-437-7V50a10 10 0 0 1 3-6 9 9 0 0 1 7-3h1a9 9 0 0 1 8 10v43h70V22a10 10 0 0 1 3-7 9 9 0 0 1 7-3c2 0 5 1 6 3a9 9 0 0 1 3 7v143a9 9 0 0 1-3 6 10 10 0 0 1-6 3h-1a9 9 0 0 1-9-9v-54h-70v54a8 8 0 0 1-3 6 9 9 0 0 1-6 3h-1a9 9 0 0 1-9-9Z" data-name="Union 81"/></g><g data-name="Group 4649"><path fill="#000" d="m138 183-17 35a18 18 0 0 0-1 3 110 110 0 0 0 49-15l-17-24c-5-8-11-7-14 1Z" data-name="Path 1355"/><path fill="url(#a)" d="m80 218-1-1h-3a119 119 0 0 1-37-21 111 111 0 0 1-16-17l-5-8 25-2 59-4 16-1c6 0 10 5 7 10l-21 46-1 1a92 92 0 0 1-23-3Zm95-28-12-17a7 7 0 0 1 6-12l40-3a6 6 0 0 1 3 0 117 117 0 0 1-31 40ZM8 151a108 108 0 0 1-8-40 153 153 0 0 1 2-22l1-6 1-3 1-2a110 110 0 0 1 12-25 108 108 0 0 1 20-25l4-2 5 6 21 30a11 11 0 0 1 1 13L57 99c-3 5-1 9 3 11s8 0 10-5l5-11c4-7 10-7 14-1l32 44 1 2a8 8 0 0 1 0 7 7 7 0 0 1-7 4l-48 3-42 3a129 129 0 0 1-15 1l-2-6Zm152-9a8 8 0 0 1 0-6l36-77a7 7 0 0 1 3-4 7 7 0 0 1 10 3 113 113 0 0 1 10 80 7 7 0 0 1-6 5l-45 3h-2c-4 0-5-1-6-4Zm-29-15L92 73a11 11 0 0 1-1-13l27-57a29 29 0 0 0 2-3 120 120 0 0 1 37 10 112 112 0 0 1 35 24l-10 21-33 71c-3 5-6 8-9 8s-6-2-9-7ZM71 42 53 17l5-4a103 103 0 0 1 22-9 108 108 0 0 1 23-4h1L94 21l-9 20c-2 3-4 5-7 5-2 0-5-1-7-4Z" data-name="Union 80"/></g></g></svg>