<svg xmlns:xlink="http://www.w3.org/1999/xlink" xmlns="http://www.w3.org/2000/svg" width="920" height="216" viewBox="0 0 920 216" fill="none" scale="0.5">
	<g clip-path="url(#clip0_336_2305)">
		<path d="M352.274 78.7545C358.238 78.6185 364.162 79.7881 369.634 82.1822C375.106 84.5761 379.995 88.1377 383.966 92.6206C392.471 102.06 397.007 114.454 396.616 127.192C397.015 139.94 392.479 152.344 383.966 161.79C379.992 166.267 375.101 169.825 369.629 172.218C364.16 174.612 358.238 175.785 352.274 175.656C347.124 175.787 341.999 174.841 337.231 172.876C332.462 170.91 328.149 167.97 324.568 164.24V173.448H298.251V42.7832H324.568V90.1705C328.146 86.4355 332.457 83.4913 337.228 81.5258C341.997 79.5603 347.121 78.6166 352.274 78.7545ZM330.879 143.374C335.196 147.54 340.946 149.866 346.926 149.866C352.906 149.866 358.656 147.54 362.972 143.374C367.093 138.959 369.388 133.129 369.388 127.071C369.388 121.012 367.093 115.182 362.972 110.768C358.656 106.601 352.906 104.275 346.926 104.275C340.946 104.275 335.196 106.601 330.879 110.768C326.758 115.182 324.463 121.012 324.463 127.071C324.463 133.129 326.758 138.959 330.879 143.374Z" fill="#000"/>
		<path d="M425.58 69.0885C423.444 69.1324 421.317 68.7412 419.333 67.9386C417.349 67.1357 415.546 65.9378 414.032 64.4168C412.519 62.8959 411.326 61.0828 410.526 59.0866C409.727 57.0901 409.333 54.9518 409.373 52.7991C409.315 50.6565 409.702 48.5249 410.507 46.5408C411.312 44.5567 412.521 42.7635 414.054 41.2754C415.567 39.7652 417.37 38.5789 419.349 37.7879C421.331 36.9965 423.449 36.6166 425.58 36.6713C427.744 36.6016 429.9 36.9734 431.919 37.7647C433.935 38.556 435.773 39.7501 437.321 41.2754C438.856 42.7622 440.068 44.5545 440.878 46.5386C441.688 48.5224 442.082 50.6546 442.028 52.7991C442.084 54.9601 441.696 57.1092 440.886 59.1113C440.076 61.1132 438.862 62.9244 437.321 64.4306C435.778 65.9655 433.943 67.1696 431.924 67.9703C429.908 68.7708 427.749 69.1512 425.58 69.0885ZM412.476 173.448V80.9623H438.765V173.448H412.476Z" fill="#000"/>
		<path d="M517.607 105.006H494.019V138.931C494.019 146.308 497.862 149.997 505.546 149.997C509.771 149.899 513.908 148.772 517.607 146.712V171.617C512.175 174.337 506.182 175.721 500.117 175.656C489.312 175.656 481.235 172.748 475.886 166.933C470.537 161.117 467.863 153.246 467.863 143.32V105.006H453.956V80.7738H467.863V58.0225H494.153V80.9623H517.741L517.607 105.006Z" fill="#000"/>
		<path d="M575.589 175.656C569.071 175.837 562.58 174.698 556.507 172.307C550.436 169.916 544.9 166.321 540.233 161.736C535.603 157.292 531.947 151.924 529.498 145.976C527.048 140.028 525.858 133.63 526.005 127.192C525.858 120.754 527.048 114.357 529.5 108.409C531.95 102.461 535.606 97.0923 540.233 92.6476C544.91 88.0645 550.457 84.4733 556.539 82.0867C562.62 79.7003 569.116 78.5671 575.642 78.7545C584.326 78.6403 592.892 80.7528 600.541 84.8933C607.805 88.828 613.884 94.6594 618.139 101.775L595.219 115.776C593.264 112.276 590.41 109.371 586.955 107.362C583.502 105.354 579.576 104.317 575.589 104.36C572.612 104.284 569.651 104.826 566.889 105.952C564.129 107.077 561.628 108.762 559.542 110.902C555.421 115.316 553.126 121.147 553.126 127.205C553.126 133.264 555.421 139.094 559.542 143.508C561.628 145.648 564.129 147.333 566.889 148.459C569.651 149.584 572.612 150.126 575.589 150.051C579.576 150.094 583.502 149.057 586.955 147.048C590.41 145.04 593.264 142.134 595.219 138.635L618.085 152.528C613.862 159.688 607.778 165.553 600.487 169.49C592.847 173.655 584.275 175.778 575.589 175.656Z" fill="#000"/>
		<path d="M696.311 80.9623H722.601V173.448H696.311V164.24C692.722 167.959 688.408 170.893 683.64 172.857C678.874 174.822 673.755 175.774 668.604 175.656C662.646 175.777 656.73 174.596 651.266 172.193C645.805 169.789 640.927 166.222 636.966 161.736C628.435 152.32 623.88 139.931 624.263 127.192C623.883 114.453 628.437 102.065 636.966 92.6475C640.932 88.1711 645.813 84.6114 651.274 82.2132C656.735 79.815 662.648 78.6352 668.604 78.7544C673.774 78.6112 678.914 79.5522 683.704 81.5177C688.491 83.4829 692.821 86.4296 696.418 90.1705L696.311 80.9623ZM673.766 150.051C676.743 150.123 679.703 149.58 682.463 148.454C685.223 147.329 687.724 145.646 689.812 143.508C693.934 139.094 696.228 133.264 696.228 127.205C696.228 121.147 693.934 115.316 689.812 110.902C687.724 108.765 685.223 107.082 682.463 105.956C679.703 104.831 676.743 104.287 673.766 104.36C670.787 104.264 667.818 104.797 665.055 105.924C662.293 107.051 659.795 108.747 657.719 110.902C653.628 115.332 651.352 121.156 651.352 127.205C651.352 133.254 653.628 139.079 657.719 143.508C659.795 145.664 662.293 147.36 665.055 148.486C667.818 149.613 670.787 150.146 673.766 150.051Z" fill="#000"/>
		<path d="M775.849 175.656C761.455 175.859 747.465 170.852 736.428 161.548L748.65 144.451C755.908 150.919 765.271 154.482 774.966 154.466C778.63 154.629 782.286 153.967 785.664 152.528C786.787 152.13 787.766 151.406 788.48 150.448C789.194 149.489 789.611 148.339 789.675 147.143C789.678 145.956 789.293 144.802 788.579 143.858C787.555 142.721 786.268 141.852 784.835 141.327C783.241 140.651 781.607 140.076 779.941 139.604L773.308 137.908L768.253 136.777C767.042 136.49 765.357 136.032 763.199 135.404C761.442 134.919 759.709 134.344 758.01 133.681C756.7 133.142 755.122 132.415 753.25 131.5C751.626 130.744 750.102 129.795 748.703 128.673C747.58 127.677 746.35 126.492 745.013 125.065C743.764 123.757 742.742 122.246 741.991 120.595C741.215 118.863 740.608 117.06 740.172 115.21C739.669 113.03 739.418 110.799 739.423 108.56C739.305 102.609 741.191 96.7918 744.772 92.0552C748.302 87.4541 753.06 83.9612 758.492 81.9854C764.662 79.779 771.174 78.7028 777.721 78.8083C790.914 78.7068 803.775 82.9628 814.334 90.9244L801.791 107.968C794.984 102.951 786.822 100.134 778.389 99.8903C775.242 99.7726 772.104 100.333 769.189 101.533C768.16 101.901 767.267 102.579 766.63 103.475C765.994 104.37 765.646 105.44 765.632 106.541C765.63 107.511 765.94 108.455 766.515 109.233C767.082 110.047 767.799 110.741 768.628 111.279C769.775 111.962 770.995 112.513 772.265 112.922C773.696 113.429 775.151 113.86 776.624 114.214L781.973 115.453L787.616 116.718C789.007 117.068 790.906 117.553 793.286 118.226C795.273 118.778 797.215 119.489 799.089 120.353C800.587 121.107 802.299 121.995 804.224 123.045C806.008 123.97 807.621 125.199 808.985 126.68C810.284 128.122 811.475 129.661 812.542 131.284C813.729 133.089 814.582 135.096 815.056 137.208C815.609 139.618 815.879 142.085 815.858 144.558C816.035 149.027 815.09 153.468 813.114 157.472C811.138 161.477 808.19 164.915 804.545 167.471C796.081 173.189 786.033 176.055 775.849 175.656Z" fill="#000"/>
		<path d="M884.323 78.7545C889.001 78.545 893.67 79.2884 898.054 80.9399C902.44 82.5918 906.446 85.1178 909.837 88.3666C913.106 91.7294 915.652 95.7334 917.318 100.129C918.981 104.525 919.733 109.218 919.519 113.918V173.448H893.256V122.857C893.376 120.402 893.01 117.948 892.178 115.637C891.346 113.326 890.068 111.204 888.415 109.395C886.744 107.698 884.738 106.373 882.529 105.505C880.317 104.638 877.948 104.248 875.578 104.36C873.051 104.249 870.529 104.649 868.156 105.537C865.787 106.425 863.618 107.782 861.778 109.529C859.992 111.31 858.593 113.445 857.67 115.8C856.75 118.155 856.328 120.678 856.429 123.207V173.448H830.14V42.7832H856.429V90.709C859.959 86.8238 864.276 83.746 869.087 81.6836C873.899 79.6214 879.095 78.6225 884.323 78.7545Z" fill="#000"/>
		<path d="M106.79 215.02C165.768 215.02 213.579 166.886 213.579 107.51C213.579 48.1339 165.768 0 106.79 0C47.8114 0 0 48.1339 0 107.51C0 166.886 47.8114 215.02 106.79 215.02Z" fill="#000"/>
		<path d="M145.916 124.042C146.091 128.447 145.161 132.826 143.212 136.774C141.263 140.721 138.358 144.112 134.764 146.631C130.022 149.988 124.64 152.317 118.958 153.47C118.984 153.784 118.984 154.099 118.958 154.413C118.802 157.96 117.293 161.31 114.745 163.764C112.196 166.219 108.805 167.589 105.278 167.589C101.752 167.589 98.3608 166.219 95.8124 163.764C93.2639 161.31 91.7547 157.96 91.5988 154.413C91.5731 153.955 91.5731 153.497 91.5988 153.039C82.7436 150.985 74.4962 146.851 67.5291 140.977L79.5639 124.122C86.6891 130.512 95.9103 134.022 105.452 133.977C109.022 134.132 112.582 133.498 115.883 132.119C116.994 131.715 117.961 130.987 118.661 130.028C119.361 129.069 119.762 127.923 119.814 126.734C119.849 125.58 119.469 124.452 118.744 123.557C117.761 122.421 116.497 121.567 115.08 121.08C113.518 120.369 111.898 119.792 110.24 119.357C108.769 118.926 106.576 118.361 103.741 117.714L98.9535 116.395C97.75 116.126 96.1186 115.668 93.9791 115.076C91.8395 114.483 90.1012 113.864 88.8442 113.353C87.5872 112.841 85.9825 112.087 84.1907 111.226C82.5737 110.491 81.0624 109.54 79.6977 108.398C78.4097 107.353 77.1944 106.219 76.0605 105.006C74.823 103.718 73.8024 102.236 73.0384 100.617C72.2711 98.8841 71.6712 97.081 71.2465 95.2323C70.7525 93.0873 70.5102 90.8916 70.5244 88.6897C70.3942 82.8739 72.2125 77.1834 75.686 72.5349C79.1526 67.9984 83.8403 64.5593 89.1918 62.6266C90.0038 62.2944 90.8457 62.0418 91.7058 61.8728C91.6799 61.5591 91.6799 61.2441 91.7058 60.9304C91.7919 57.3731 93.2409 53.9871 95.7498 51.4807C98.2587 48.9743 101.633 47.5416 105.167 47.4824C108.701 47.4234 112.121 48.7422 114.711 51.1635C117.302 53.5846 118.862 56.9202 119.065 60.4727C128.192 62.1008 136.812 65.8635 144.231 71.4579L132.063 88.2858C125.396 83.2722 117.354 80.4513 109.036 80.2084C105.954 80.0948 102.883 80.6362 100.023 81.797C99.0014 82.1623 98.114 82.832 97.4788 83.7167C96.8436 84.6014 96.4903 85.6596 96.4663 86.7511C96.4719 87.7196 96.7805 88.6619 97.3488 89.4436C97.9043 90.2324 98.6031 90.9085 99.4081 91.436C100.541 92.1156 101.754 92.6492 103.019 93.0245C104.418 93.5353 105.847 93.958 107.298 94.29C108.555 94.64 110.346 95.0169 112.646 95.5824L118.183 96.767C119.6 97.1171 121.472 97.6017 123.745 98.2748C125.71 98.8225 127.632 99.5152 129.495 100.348L134.603 103.04C136.265 103.942 137.773 105.105 139.07 106.487C140.36 107.885 141.532 109.389 142.573 110.983C143.756 112.755 144.591 114.738 145.034 116.826C145.626 119.185 145.922 121.609 145.916 124.042Z" fill="white"/>
	</g>
	<defs>
		<clipPath id="clip0_336_2305">
			<rect width="920" height="215.397" fill="white"/>
		</clipPath>
	</defs>
</svg>