<svg xmlns:xlink="http://www.w3.org/1999/xlink" xmlns="http://www.w3.org/2000/svg" width="1208.619" height="271.606" viewBox="0 0 1208.619 271.606"><g transform="translate(-6470 -2672.786)"><path d="M27.594-269.892h96.39q31,0,51.219,6.993t32.13,18.522a62.575,62.575,0,0,1,16.632,26.838A107.687,107.687,0,0,1,228.69-185.6a121.262,121.262,0,0,1-4.725,34.02,67.526,67.526,0,0,1-16.632,28.539q-11.907,12.285-31.752,19.467T125.5-96.39H83.16V0H27.594Zm96.012,126.63q14.742,0,24.381-3.024T163.3-154.6a27.038,27.038,0,0,0,7.749-13.041,64.754,64.754,0,0,0,2.079-16.821,55.306,55.306,0,0,0-2.268-16.632,26.11,26.11,0,0,0-7.938-12.1q-5.67-4.914-15.309-7.56T123.228-223.4H83.16v80.136Z" transform="translate(6442.406 2942.892)" fill="#000000"/><path d="M27.667-270.606h95.887q31.836,0,52.492,7.39t32.4,19.329a65.323,65.323,0,0,1,16.3,26.53,95.847,95.847,0,0,1,4.548,28.614q0,26.151-9.475,43.964t-31.836,29.941L242.939,0H181.92L136.44-101.572H83.38V0H27.667Zm99.677,122.038q13.265,0,21.982-2.843a34.155,34.155,0,0,0,13.833-7.959,26.7,26.7,0,0,0,7.012-12.317,62.5,62.5,0,0,0,1.895-15.918,42.355,42.355,0,0,0-2.274-13.833,28.587,28.587,0,0,0-7.77-11.749q-5.5-5.116-15.16-7.959t-24.445-2.842H83.38v75.421Z" transform="translate(6760.406 2943.892)" fill="#000000"/><path d="M97.4-110.289,3.79-270.606H66.7L125.07-161.075l60.261-109.531h59.882L153.874-110.289V0H97.4Z" transform="translate(7433.406 2943.892)" fill="#000000"/><path d="M254.689,270.607v0h-64.43l-29.542-44.4a97.263,97.263,0,0,0,42.26-30.745l51.712,75.143h0Zm-192.913,0H0l50.2-75.8a97.421,97.421,0,0,0,40.491,30.516L61.777,270.606h0ZM54.636,70.213h0L6.443,0h64.43l27.3,42.343A97.175,97.175,0,0,0,54.636,70.213Zm143.383-1.127h0A97.249,97.249,0,0,0,155.568,42.36L183.436,0h60.64L198.02,69.085Z" transform="translate(7098.68 2673.286)" fill="#000000"/><path d="M254.687,271.106h-64.7l-30.04-45.147.591-.22a96.764,96.764,0,0,0,42.043-30.587l.42-.53,52.1,75.7-.344.238.359-.215-.368.222-.06.041.021.5Zm-64.161-1h63.211l-50.791-73.8a97.764,97.764,0,0,1-41.466,30.153Zm-128.749,1H-.931l51.094-77.154.427.548A96.922,96.922,0,0,0,90.874,224.86l.56.225L62.051,271.106Zm-60.846-1H61.5l28.44-44.544a97.923,97.923,0,0,1-39.712-29.9ZM55.008,70.547l-.372-.334-.412.283L5.493-.5H71.146L98.951,42.627l-.63.194A96.675,96.675,0,0,0,55.008,70.547ZM7.393.5l47.3,68.908A97.682,97.682,0,0,1,97.4,42.062L70.6.5ZM197.653,69.425A96.748,96.748,0,0,0,155.42,42.838l-.636-.2L183.167-.5h61.844L198.655,69.034l0,0-.228.33-.412-.283Zm-41.3-27.344a97.755,97.755,0,0,1,41.6,26.2L243.142.5H183.706Z" transform="translate(7098.68 2673.286)" fill="#000"/><circle cx="43.536" cy="43.536" r="43.536" transform="translate(7181.988 2764.91)" fill="#000000"/></g></svg>